# xmcd
# Copyright (C) 1995-1998 Ti Kan
#
# Track frame offsets:
#       150
#       19527
#       37657
#       56130
#       68042
#       80662
#       94460
#       110077
#       129405
#       147332
#       164260
#       184155
#       197982
#       212952
#       229970
#       247442
#       267695
#       285362
#
# Disc length: 3971 seconds
#
# Revision: 0
# Processed by: cddbd v1.5.1PL0 Copyright (c) Steve Scherf et al.
# Submitted via: CD-Transfer v1.0
#
DISCID=1a0f8112
DTITLE=Various Artist - 
DYEAR=93
DGENRE=
TTITLE0=Boney M    Rivers of babylon
TTITLE1=Saragossa Band    Zabadak
TTITLE2=Smokie    Lay back in the arms of someone
TTITLE3=Sailor    A glass of champagne
TTITLE4=Showaddywaddy    When
TTITLE5=The Rubettes     Juke box live
TTITLE6=Racey    Some girls
TTITLE7=Luisa Fernandez     Lay love on you
TTITLE8=Marc Seaberg    Looking for freedom
TTITLE9=The les Humphries Singers    Mexico
TTITLE10=Goombay Dance Band    Sun of Jamaica
TTITLE11=Nick Mackenzie    Juanita
TTITLE12=Kincade    Shine on me woman
TTITLE13=Three Dog Night     Black and White
TTITLE14=Mud    Tiger feet
TTITLE15=Hot Chocolate    So you win again
TTITLE16=Bonnie Tyler     Lost in France
TTITLE17=Cliff Richard     Goodbye Sam, Hello Samantha
EXTD=
EXTT0=
EXTT1=
EXTT2=
EXTT3=
EXTT4=
EXTT5=
EXTT6=
EXTT7=
EXTT8=
EXTT9=
EXTT10=
EXTT11=
EXTT12=
EXTT13=
EXTT14=
EXTT15=
EXTT16=
EXTT17=
PLAYORDER=
